<svg xmlns="http://www.w3.org/2000/svg" width="1200" height="400" viewBox="0 0 1200 400">
  <defs>
    <linearGradient id="grad1" x1="0%" y1="0%" x2="100%" y2="100%">
      <stop offset="0%" style="stop-color:#1a4d4e;stop-opacity:1" />
      <stop offset="50%" style="stop-color:#2C7A7B;stop-opacity:1" />
      <stop offset="100%" style="stop-color:#1a4d4e;stop-opacity:1" />
    </linearGradient>

    <linearGradient id="grad2" x1="0%" y1="100%" x2="100%" y2="0%">
      <stop offset="0%" style="stop-color:#2C7A7B;stop-opacity:0.3" />
      <stop offset="100%" style="stop-color:#1a4d4e;stop-opacity:0.2" />
    </linearGradient>
  </defs>

  <!-- Base gradient background -->
  <rect width="1200" height="400" fill="url(#grad1)"/>

  <!-- Abstract vertical stripes with varying opacity -->
  <line x1="20" y1="0" x2="20" y2="400" stroke="#FFFFFF" stroke-width="3" opacity="0.15"/>
  <line x1="50" y1="0" x2="50" y2="400" stroke="#FFFFFF" stroke-width="2" opacity="0.08"/>
  <line x1="90" y1="0" x2="90" y2="400" stroke="#FFFFFF" stroke-width="3" opacity="0.12"/>
  <line x1="130" y1="0" x2="130" y2="400" stroke="#FFFFFF" stroke-width="2" opacity="0.1"/>
  <line x1="170" y1="0" x2="170" y2="400" stroke="#FFFFFF" stroke-width="3" opacity="0.14"/>
  <line x1="210" y1="0" x2="210" y2="400" stroke="#FFFFFF" stroke-width="2" opacity="0.09"/>
  <line x1="250" y1="0" x2="250" y2="400" stroke="#FFFFFF" stroke-width="3" opacity="0.13"/>
  <line x1="290" y1="0" x2="290" y2="400" stroke="#FFFFFF" stroke-width="2" opacity="0.11"/>
  <line x1="330" y1="0" x2="330" y2="400" stroke="#FFFFFF" stroke-width="3" opacity="0.15"/>
  <line x1="370" y1="0" x2="370" y2="400" stroke="#FFFFFF" stroke-width="2" opacity="0.08"/>
  <line x1="410" y1="0" x2="410" y2="400" stroke="#FFFFFF" stroke-width="3" opacity="0.12"/>
  <line x1="450" y1="0" x2="450" y2="400" stroke="#FFFFFF" stroke-width="2" opacity="0.1"/>
  <line x1="490" y1="0" x2="490" y2="400" stroke="#FFFFFF" stroke-width="3" opacity="0.14"/>
  <line x1="530" y1="0" x2="530" y2="400" stroke="#FFFFFF" stroke-width="2" opacity="0.09"/>
  <line x1="570" y1="0" x2="570" y2="400" stroke="#FFFFFF" stroke-width="3" opacity="0.13"/>
  <line x1="610" y1="0" x2="610" y2="400" stroke="#FFFFFF" stroke-width="2" opacity="0.11"/>
  <line x1="650" y1="0" x2="650" y2="400" stroke="#FFFFFF" stroke-width="3" opacity="0.15"/>
  <line x1="690" y1="0" x2="690" y2="400" stroke="#FFFFFF" stroke-width="2" opacity="0.08"/>
  <line x1="730" y1="0" x2="730" y2="400" stroke="#FFFFFF" stroke-width="3" opacity="0.12"/>
  <line x1="770" y1="0" x2="770" y2="400" stroke="#FFFFFF" stroke-width="2" opacity="0.1"/>
  <line x1="810" y1="0" x2="810" y2="400" stroke="#FFFFFF" stroke-width="3" opacity="0.14"/>
  <line x1="850" y1="0" x2="850" y2="400" stroke="#FFFFFF" stroke-width="2" opacity="0.09"/>
  <line x1="890" y1="0" x2="890" y2="400" stroke="#FFFFFF" stroke-width="3" opacity="0.13"/>
  <line x1="930" y1="0" x2="930" y2="400" stroke="#FFFFFF" stroke-width="2" opacity="0.11"/>
  <line x1="970" y1="0" x2="970" y2="400" stroke="#FFFFFF" stroke-width="3" opacity="0.15"/>
  <line x1="1010" y1="0" x2="1010" y2="400" stroke="#FFFFFF" stroke-width="2" opacity="0.08"/>
  <line x1="1050" y1="0" x2="1050" y2="400" stroke="#FFFFFF" stroke-width="3" opacity="0.12"/>
  <line x1="1090" y1="0" x2="1090" y2="400" stroke="#FFFFFF" stroke-width="2" opacity="0.1"/>
  <line x1="1130" y1="0" x2="1130" y2="400" stroke="#FFFFFF" stroke-width="3" opacity="0.14"/>
  <line x1="1170" y1="0" x2="1170" y2="400" stroke="#FFFFFF" stroke-width="2" opacity="0.09"/>

  <!-- Overlay gradient for depth -->
  <rect width="1200" height="400" fill="url(#grad2)"/>

  <!-- Abstract geometric circles for visual interest -->
  <circle cx="150" cy="100" r="60" fill="#FFFFFF" opacity="0.08"/>
  <circle cx="1050" cy="300" r="80" fill="#FFFFFF" opacity="0.06"/>
  <circle cx="600" cy="200" r="100" fill="#FFFFFF" opacity="0.04"/>

  <!-- Subtle accent lines -->
  <line x1="0" y1="0" x2="1200" y2="400" stroke="#FFFFFF" stroke-width="1" opacity="0.05"/>
  <line x1="1200" y1="0" x2="0" y2="400" stroke="#FFFFFF" stroke-width="1" opacity="0.05"/>
</svg>
