<svg xmlns="http://www.w3.org/2000/svg" viewBox="0 0 400 400" width="400" height="400">
  <!-- Large Wagon Wheel for background watermark -->
  <g opacity="0.08">
    <!-- Outer circle -->
    <circle cx="200" cy="200" r="180" fill="none" stroke="#1E5455" stroke-width="12"/>

    <!-- Center hub -->
    <circle cx="200" cy="200" r="20" fill="#1E5455"/>

    <!-- Small circles at spoke ends (cardinal directions) - moved inward to r=155 -->
    <circle cx="200" cy="45" r="10" fill="#1E5455"/>
    <circle cx="355" cy="200" r="10" fill="#1E5455"/>
    <circle cx="200" cy="355" r="10" fill="#1E5455"/>
    <circle cx="45" cy="200" r="10" fill="#1E5455"/>

    <!-- Diagonal circles - moved inward -->
    <circle cx="90" cy="90" r="10" fill="#1E5455"/>
    <circle cx="310" cy="310" r="10" fill="#1E5455"/>
    <circle cx="310" cy="90" r="10" fill="#1E5455"/>
    <circle cx="90" cy="310" r="10" fill="#1E5455"/>

    <!-- Spokes - endpoints match the circles above -->
    <line x1="200" y1="200" x2="200" y2="45" stroke="#1E5455" stroke-width="8"/>
    <line x1="200" y1="200" x2="355" y2="200" stroke="#1E5455" stroke-width="8"/>
    <line x1="200" y1="200" x2="200" y2="355" stroke="#1E5455" stroke-width="8"/>
    <line x1="200" y1="200" x2="45" y2="200" stroke="#1E5455" stroke-width="8"/>
    <line x1="200" y1="200" x2="90" y2="90" stroke="#1E5455" stroke-width="8"/>
    <line x1="200" y1="200" x2="310" y2="310" stroke="#1E5455" stroke-width="8"/>
    <line x1="200" y1="200" x2="310" y2="90" stroke="#1E5455" stroke-width="8"/>
    <line x1="200" y1="200" x2="90" y2="310" stroke="#1E5455" stroke-width="8"/>
  </g>
</svg>
